[h264 @ 0x55ab947abac0] Reinit context to 848x480, pix_fmt: yuv420p
Input #0, mov,mp4,m4a,3gp,3g2,mj2, from '/var/www/html/project/media/video/original/IMG_7306.MOV':
  Metadata:
    major_brand     : qt  
    minor_version   : 0
    compatible_brands: qt  
    creation_time   : 2022-08-22T18:44:50.000000Z
  Duration: 00:00:21.78, start: 0.000000, bitrate: 1665 kb/s
    Stream #0:0(und): Audio: aac (LC) (mp4a / 0x6134706D), 44100 Hz, stereo, fltp, 62 kb/s (default)
    Metadata:
      creation_time   : 2022-08-22T18:44:50.000000Z
      handler_name    : Core Media Audio
    Stream #0:1(und): Video: h264 (Baseline), 1 reference frame (avc1 / 0x31637661), yuv420p(tv, bt709, progressive, left), 848x480, 1600 kb/s, 30 fps, 30 tbr, 600 tbn, 1200 tbc (default)
    Metadata:
      creation_time   : 2022-08-22T18:44:50.000000Z
      handler_name    : Core Media Video
      encoder         : 'avc1'
[h264 @ 0x55ab947f7700] Reinit context to 1280x720, pix_fmt: yuv420p
Input #1, mov,mp4,m4a,3gp,3g2,mj2, from '/var/www/html/project/static/images/templates/Codino.mp4':
  Metadata:
    major_brand     : mp42
    minor_version   : 1
    compatible_brands: isommp41mp42
    creation_time   : 2021-07-11T07:02:58.000000Z
  Duration: 00:00:02.00, start: 0.000000, bitrate: 1007 kb/s
    Stream #1:0(ita): Audio: aac (LC) (mp4a / 0x6134706D), 44100 Hz, stereo, fltp, 102 kb/s (default)
    Metadata:
      creation_time   : 2021-07-11T07:02:58.000000Z
      handler_name    : Core Media Audio
    Stream #1:1(und): Video: h264 (High), 1 reference frame (avc1 / 0x31637661), yuv420p(tv, bt709, progressive, left), 1280x720 [SAR 1:1 DAR 16:9], 813 kb/s, 25 fps, 25 tbr, 25k tbn, 50k tbc (default)
    Metadata:
      creation_time   : 2021-07-11T07:02:58.000000Z
      handler_name    : Core Media Video
[Parsed_scale_1 @ 0x55ab94801940] w:1280 h:720 flags:'bilinear' interl:0
[Parsed_scale_4 @ 0x55ab948aff40] w:-1 h:720 flags:'bilinear' interl:0
[Parsed_scale_7 @ 0x55ab948ae9c0] w:1280 h:720 flags:'bilinear' interl:0
Stream mapping:
  Stream #0:0 (aac) -> concat:in0:a0
  Stream #0:1 (h264) -> split
  Stream #1:0 (aac) -> concat:in1:a0
  Stream #1:1 (h264) -> scale
  concat:out:v0 -> Stream #0:0 (libx264)
  concat:out:a0 -> Stream #0:1 (aac)
Press [q] to stop, [?] for help
[h264 @ 0x55ab9492bd80] Reinit context to 848x480, pix_fmt: yuv420p
[h264 @ 0x55ab94c0c400] Reinit context to 1280x720, pix_fmt: yuv420p
[Parsed_scale_1 @ 0x55ab95814cc0] w:1280 h:720 flags:'bilinear' interl:0
[Parsed_scale_4 @ 0x55ab95817a00] w:-1 h:720 flags:'bilinear' interl:0
[Parsed_scale_7 @ 0x55ab9581a0c0] w:1280 h:720 flags:'bilinear' interl:0
[graph 0 input from stream 0:1 @ 0x55ab9581da80] w:848 h:480 pixfmt:yuv420p tb:1/600 fr:30/1 sar:0/1 sws_param:flags=2
[graph 0 input from stream 1:1 @ 0x55ab9581eac0] w:1280 h:720 pixfmt:yuv420p tb:1/25000 fr:25/1 sar:1/1 sws_param:flags=2
[graph_0_in_0_0 @ 0x55ab9581fa80] tb:1/44100 samplefmt:fltp samplerate:44100 chlayout:0x3
[graph_0_in_1_0 @ 0x55ab95820bc0] tb:1/44100 samplefmt:fltp samplerate:44100 chlayout:0x3
[Parsed_scale_1 @ 0x55ab95814cc0] w:848 h:480 fmt:yuv420p sar:0/1 -> w:1280 h:720 fmt:yuv420p sar:0/1 flags:0x2
[Parsed_boxblur_2 @ 0x55ab95814e80] luma_radius:36 luma_power:1 chroma_radius:18 chroma_power:1 alpha_radius:36 alpha_power:1 w:1280 chroma_w:640 h:720 chroma_h:360
[Parsed_setsar_3 @ 0x55ab95816cc0] w:1280 h:720 sar:0/1 dar:16/9 -> sar:1/1 dar:16/9
[Parsed_scale_4 @ 0x55ab95817a00] w:848 h:480 fmt:yuv420p sar:0/1 -> w:1272 h:720 fmt:yuva420p sar:0/1 flags:0x2
[Parsed_setsar_5 @ 0x55ab958185c0] w:1272 h:720 sar:0/1 dar:53/30 -> sar:1/1 dar:53/30
[Parsed_overlay_6 @ 0x55ab95819240] main w:1280 h:720 fmt:yuv420p overlay w:1272 h:720 fmt:yuva420p
[Parsed_overlay_6 @ 0x55ab95819240] [framesync @ 0x55ab958193a8] Selected 1/600 time base
[Parsed_overlay_6 @ 0x55ab95819240] [framesync @ 0x55ab958193a8] Sync level 2
[Parsed_scale_7 @ 0x55ab9581a0c0] w:1280 h:720 fmt:yuv420p sar:1/1 -> w:1280 h:720 fmt:yuv420p sar:1/1 flags:0x2
[Parsed_setsar_8 @ 0x55ab9581abc0] w:1280 h:720 sar:1/1 dar:16/9 -> sar:1/1 dar:16/9
[libx264 @ 0x55ab948af740] using SAR=1/1
[libx264 @ 0x55ab948af740] using cpu capabilities: MMX2 SSE2Fast SSSE3 SSE4.2 AVX FMA3 BMI2 AVX2
[libx264 @ 0x55ab948af740] profile High, level 3.1
[libx264 @ 0x55ab948af740] 264 - core 155 r2917 0a84d98 - H.264/MPEG-4 AVC codec - Copyleft 2003-2018 - http://www.videolan.org/x264.html - options: cabac=1 ref=1 deblock=1:0:0 analyse=0x3:0x113 me=hex subme=2 psy=1 psy_rd=1.00:0.00 mixed_ref=0 me_range=16 chroma_me=1 trellis=0 8x8dct=1 cqm=0 deadzone=21,11 fast_pskip=1 chroma_qp_offset=0 threads=22 lookahead_threads=5 sliced_threads=0 nr=0 decimate=1 interlaced=0 bluray_compat=0 constrained_intra=0 bframes=3 b_pyramid=2 b_adapt=1 b_bias=0 direct=1 weightb=1 open_gop=0 weightp=1 keyint=250 keyint_min=25 scenecut=40 intra_refresh=0 rc_lookahead=10 rc=crf mbtree=1 crf=18.0 qcomp=0.60 qpmin=0 qpmax=69 qpstep=4 ip_ratio=1.40 aq=1:1.00
Output #0, mp4, to '/var/www/html/project/media/video/watermarks/IMG_7306.mp4':
  Metadata:
    major_brand     : qt  
    minor_version   : 0
    compatible_brands: qt  
    encoder         : Lavf58.29.100
    Stream #0:0: Video: h264 (libx264), 1 reference frame (avc1 / 0x31637661), yuv420p(progressive), 1280x720 [SAR 1:1 DAR 16:9], q=-1--1, 30 fps, 15360 tbn, 30 tbc (default)
    Metadata:
      encoder         : Lavc58.54.100 libx264
    Side data:
      cpb: bitrate max/min/avg: 0/0/0 buffer size: 0 vbv_delay: -1
    Stream #0:1: Audio: aac (LC) (mp4a / 0x6134706D), 44100 Hz, stereo, fltp, delay 1024, 128 kb/s (default)
    Metadata:
      encoder         : Lavc58.54.100 aac
[Parsed_concat_9 @ 0x55ab9581ba40] EOF on in0:a0, 1 streams left in segment.
[Parsed_overlay_6 @ 0x55ab95819240] [framesync @ 0x55ab958193a8] Sync level 1
[Parsed_overlay_6 @ 0x55ab95819240] [framesync @ 0x55ab958193a8] Sync level 0
[Parsed_concat_9 @ 0x55ab9581ba40] EOF on in0:v0, 0 streams left in segment.
[Parsed_concat_9 @ 0x55ab9581ba40] Segment finished at pts=21780318
[Parsed_concat_9 @ 0x55ab9581ba40] EOF on in1:a0, 1 streams left in segment.
[Parsed_concat_9 @ 0x55ab9581ba40] EOF on in1:v0, 0 streams left in segment.
[Parsed_concat_9 @ 0x55ab9581ba40] Segment finished at pts=23799003
No more output streams to write to, finishing.
frame=  703 fps= 66 q=-1.0 Lsize=    7477kB time=00:00:23.80 bitrate=2573.6kbits/s speed=2.24x    
[AVIOContext @ 0x55ab947a8340] Statistics: 0 seeks, 21 writeouts
video:7084kB audio:367kB subtitle:0kB other streams:0kB global headers:0kB muxing overhead: 0.350947%
Input file #0 (/var/www/html/project/media/video/original/IMG_7306.MOV):
  Input stream #0:0 (audio): 938 packets read (169791 bytes); 938 frames decoded (960512 samples); 
  Input stream #0:1 (video): 653 packets read (4354209 bytes); 653 frames decoded; 
  Total: 1591 packets (4524000 bytes) demuxed
Input file #1 (/var/www/html/project/static/images/templates/Codino.mp4):
  Input stream #1:0 (audio): 89 packets read (26579 bytes); 87 frames decoded (89024 samples); 
  Input stream #1:1 (video): 50 packets read (203365 bytes); 50 frames decoded; 
  Total: 139 packets (229944 bytes) demuxed
Output file #0 (/var/www/html/project/media/video/watermarks/IMG_7306.mp4):
  Output stream #0:0 (video): 703 frames encoded; 703 packets muxed (7254141 bytes); 
  Output stream #0:1 (audio): 1025 frames encoded (1049536 samples); 1026 packets muxed (375788 bytes); 
  Total: 1729 packets (7629929 bytes) muxed
[AVIOContext @ 0x55ab947fbe40] Statistics: 2 seeks, 33 writeouts
[libx264 @ 0x55ab948af740] frame I:5     Avg QP:14.11  size: 31646
[libx264 @ 0x55ab948af740] frame P:215   Avg QP:17.58  size: 18191
[libx264 @ 0x55ab948af740] frame B:483   Avg QP:19.34  size:  6593
[libx264 @ 0x55ab948af740] consecutive B-frames:  6.1%  4.8%  6.0% 83.1%
[libx264 @ 0x55ab948af740] mb I  I16..4: 35.3% 43.0% 21.7%
[libx264 @ 0x55ab948af740] mb P  I16..4: 13.8% 29.6%  2.9%  P16..4: 17.8% 12.2%  6.0%  0.0%  0.0%    skip:17.6%
[libx264 @ 0x55ab948af740] mb B  I16..4:  3.7%  5.8%  0.2%  B16..8: 25.7%  9.2%  0.6%  direct: 9.9%  skip:44.9%  L0:45.1% L1:45.5% BI: 9.4%
[libx264 @ 0x55ab948af740] 8x8 transform intra:62.0% inter:36.1%
[libx264 @ 0x55ab948af740] coded y,uvDC,uvAC intra: 42.2% 50.3% 7.4% inter: 7.8% 21.0% 0.3%
[libx264 @ 0x55ab948af740] i16 v,h,dc,p: 32% 33%  8% 28%
[libx264 @ 0x55ab948af740] i8 v,h,dc,ddl,ddr,vr,hd,vl,hu: 20% 45% 12%  4%  4%  3%  5%  3%  5%
[libx264 @ 0x55ab948af740] i4 v,h,dc,ddl,ddr,vr,hd,vl,hu: 25% 31% 11%  6%  6%  5%  6%  5%  6%
[libx264 @ 0x55ab948af740] i8c dc,h,v,p: 49% 27% 17%  7%
[libx264 @ 0x55ab948af740] Weighted P-Frames: Y:5.1% UV:1.4%
[libx264 @ 0x55ab948af740] kb/s:2441.55
[aac @ 0x55ab94935080] Qavg: 5002.663
[AVIOContext @ 0x55ab947b12c0] Statistics: 41315325 bytes read, 1253 seeks
[AVIOContext @ 0x55ab947b0880] Statistics: 1530915 bytes read, 42 seeks
